<svg width="18" height="18" viewBox="0 0 18 18" fill="none" xmlns="http://www.w3.org/2000/svg">
<g clip-path="url(#clip0_480_12)">
<path d="M17.2516 16.1881H17.4219L17.0956 15.6946C17.2951 15.6946 17.4009 15.5678 17.4024 15.4126C17.4024 15.4066 17.4024 15.3998 17.4016 15.3938C17.4016 15.1823 17.2741 15.0811 17.0124 15.0811H16.5894V16.1881H16.7484V15.7058H16.9441L17.2516 16.1881ZM16.9329 15.5806H16.7484V15.2063H16.9824C17.1031 15.2063 17.2411 15.2258 17.2411 15.3841C17.2411 15.5656 17.1016 15.5806 16.9321 15.5806" fill="#414042"/>
<path d="M12.9683 14.3048H10.713V10.773C10.713 9.93078 10.698 8.84703 9.54 8.84703C8.3655 8.84703 8.1855 9.76428 8.1855 10.7123V14.3048H5.931V7.04178H8.09625V8.03403H8.12625C8.568 7.27953 9.3885 6.82878 10.2622 6.86103C12.5483 6.86103 12.969 8.36478 12.969 10.32L12.9683 14.3048ZM3.38625 6.04878C2.66325 6.04878 2.0775 5.46303 2.0775 4.74003C2.0775 4.01703 2.66325 3.43128 3.38625 3.43128C4.10925 3.43128 4.695 4.01703 4.695 4.74003C4.695 5.46303 4.10925 6.04878 3.38625 6.04878ZM4.5135 14.3048H2.256V7.04178H4.5135V14.3048ZM14.0925 1.33728H1.12275C0.51 1.33053 0.0075 1.82178 0 2.43453V15.4575C0.0075 16.071 0.51 16.5623 1.12275 16.5555H14.0925C14.7068 16.563 15.2115 16.0718 15.2197 15.4575V2.43378C15.2107 1.81953 14.706 1.32828 14.0925 1.33653" fill="#414042"/>
<path d="M16.9524 14.5884C16.3794 14.5936 15.9189 15.0631 15.9249 15.6361C15.9301 16.2091 16.3996 16.6696 16.9726 16.6636C17.5456 16.6584 18.0061 16.1889 18.0001 15.6159C17.9949 15.0504 17.5374 14.5936 16.9726 14.5884H16.9524ZM16.9764 16.5444C16.4739 16.5526 16.0359 16.1529 16.0276 15.6504C16.0194 15.1479 16.4199 14.7339 16.9224 14.7256C17.4249 14.7174 17.8389 15.1179 17.8471 15.6204C17.8471 15.6256 17.8471 15.6301 17.8471 15.6354C17.8576 16.1266 17.4676 16.5339 16.9764 16.5444H16.9531H16.9764Z" fill="#414042"/>
</g>
<defs>
<clipPath id="clip0_480_12">
<rect width="18" height="18" fill="white"/>
</clipPath>
</defs>
</svg>
