<svg width="18" height="18" viewBox="0 0 18 18" fill="none" xmlns="http://www.w3.org/2000/svg">
<g clip-path="url(#clip0_480_10)">
<path d="M16.1572 5.32777C16.1677 5.48602 16.1677 5.64502 16.1677 5.80477C16.1677 10.685 12.4522 16.3123 5.66025 16.3123V16.3093C3.654 16.3123 1.689 15.7378 0 14.654C0.29175 14.6893 0.585 14.7065 0.879 14.7073C2.5425 14.7088 4.158 14.1508 5.46525 13.1233C3.885 13.0933 2.499 12.0628 2.01525 10.5583C2.56875 10.6648 3.13875 10.643 3.6825 10.4953C1.959 10.1473 0.72 8.63302 0.72 6.87502C0.72 6.85927 0.72 6.84352 0.72 6.82852C1.23375 7.11502 1.80825 7.27327 2.39625 7.29052C0.77325 6.20677 0.27225 4.04827 1.2525 2.36077C3.1275 4.66777 5.89425 6.07027 8.8635 6.21952C8.56575 4.93702 8.973 3.59302 9.9315 2.69077C11.4187 1.29202 13.758 1.36402 15.1567 2.85127C15.984 2.68852 16.7768 2.38477 17.502 1.95502C17.226 2.81002 16.6493 3.53602 15.8783 3.99802C16.611 3.91027 17.3258 3.71452 18 3.41602C17.5042 4.15777 16.8802 4.80502 16.1572 5.32777Z" fill="#414042"/>
</g>
<defs>
<clipPath id="clip0_480_10">
<rect width="18" height="18" fill="white"/>
</clipPath>
</defs>
</svg>
