<svg width="18" height="18" viewBox="0 0 18 18" fill="none" xmlns="http://www.w3.org/2000/svg">
<g clip-path="url(#clip0_480_7)">
<path d="M17.6235 4.63967C17.4165 3.86042 16.8067 3.24617 16.032 3.03767C14.6287 2.65967 9 2.65967 9 2.65967C9 2.65967 3.37125 2.65967 1.96725 3.03767C1.19325 3.24617 0.5835 3.85967 0.3765 4.63967C0 6.05267 0 9.00017 0 9.00017C0 9.00017 0 11.9477 0.3765 13.3607C0.5835 14.1399 1.19325 14.7542 1.968 14.9627C3.37125 15.3407 9 15.3407 9 15.3407C9 15.3407 14.6288 15.3407 16.0328 14.9627C16.8068 14.7542 17.4165 14.1407 17.6243 13.3607C18 11.9477 18 9.00017 18 9.00017C18 9.00017 18 6.05267 17.6235 4.63967ZM7.1595 11.6769V6.32342L11.8635 9.00017L7.1595 11.6769Z" fill="#414042"/>
</g>
<defs>
<clipPath id="clip0_480_7">
<rect width="18" height="18" fill="white"/>
</clipPath>
</defs>
</svg>
